<svg width="128" height="128" viewBox="0 0 128 128" fill="none" xmlns="http://www.w3.org/2000/svg">
  <path d="M20 38C20 23.6 39.7 14 64 14C88.3 14 108 23.6 108 38V56H20V38Z" fill="#111111"/>
  <path d="M23 45C31 50 36 61 36 73V92H48V69C48 58 53 49 61 43L64 41L67 43C75 49 80 58 80 69V92H92V73C92 61 97 50 105 45V41H23V45Z" fill="#111111"/>
  <path d="M28 39C35 45 43 49 52 50L44 64C39 59 33 54 24 49L28 39Z" fill="#111111"/>
  <path d="M100 39C93 45 85 49 76 50L84 64C89 59 95 54 104 49L100 39Z" fill="#111111"/>
</svg>
