<svg width="128" height="128" viewBox="0 0 128 128" fill="none" xmlns="http://www.w3.org/2000/svg">
  <path d="M16 38C16 22 36.6 12 62 12H66C91.4 12 112 22 112 38V58H16V38Z" fill="#111111"/>
  <path d="M26 45C39 51 44 66 38 79C34 88 36 97 42 104L32 108C22 99 18 83 22 68C24 59 25 52 26 45Z" fill="#111111"/>
  <path d="M102 45C89 51 84 66 90 79C94 88 92 97 86 104L96 108C106 99 110 83 106 68C104 59 103 52 102 45Z" fill="#111111"/>
  <path d="M42 43C49 50 55 55 64 57C73 55 79 50 86 43V58L80 76C76 88 65 95 53 93L50 92C43 90 38 84 36 77L42 43Z" fill="#111111"/>
</svg>
